<?xml version="1.0" encoding="iso-8859-1"?>
<!-- Generator: Adobe Illustrator 19.0.0, SVG Export Plug-In . SVG Version: 6.00 Build 0)  -->
<svg version="1.1" id="Capa_1" xmlns="http://www.w3.org/2000/svg" xmlns:xlink="http://www.w3.org/1999/xlink" x="0px" y="0px"
	 viewBox="0 0 512 512" style="enable-background:new 0 0 512 512;" xml:space="preserve">
<circle style="fill:#FFD93B;" cx="256" cy="256" r="256"/>
<path style="fill:#3E4347;" d="M422.928,349.008c-33.44,60-95.68,100.16-166.88,100.16c-71.36,0-133.44-40.16-166.88-100.16
	c-6.08-10.56,3.36-23.04,15.2-20.48c101.12,21.6,202.08,21.6,303.2,0C419.568,325.968,428.848,338.448,422.928,349.008z"/>
<path style="fill:#F4C534;" d="M512,256c0,141.44-114.64,256-256,256c-80.48,0-152.32-37.12-199.28-95.28
	c43.92,35.52,99.84,56.72,160.72,56.72c141.36,0,256-114.56,256-256c0-60.88-21.2-116.8-56.72-160.72
	C474.8,103.68,512,175.52,512,256z"/>
<circle style="fill:#FFFFFF;" cx="159.28" cy="206.128" r="80.8"/>
<path style="fill:#3E4347;" d="M202.976,230.384c0,20.864-17.024,37.904-37.76,37.904c-20.88,0-37.904-17.024-37.904-37.904
	c0-20.736,17.024-37.76,37.904-37.76C185.952,192.624,202.976,209.648,202.976,230.384z"/>
<g>
	<path style="fill:#FFFFFF;" d="M187.968,225.008c-2.544,2.688-8.192,0.992-12.864-3.68c-4.528-4.384-6.08-10.176-3.536-12.72
		c2.4-2.4,8.192-0.848,12.72,3.536C188.816,216.816,190.384,222.608,187.968,225.008z"/>
	<circle style="fill:#FFFFFF;" cx="352.8" cy="206.128" r="80.8"/>
</g>
<path style="fill:#3E4347;" d="M401.68,181.376c0,20.864-17.024,37.904-37.76,37.904c-20.864,0-37.904-17.024-37.904-37.904
	c0-20.736,17.024-37.76,37.904-37.76C384.656,143.616,401.68,160.656,401.68,181.376z"/>
<g>
	<path style="fill:#FFFFFF;" d="M386.672,176.016c-2.544,2.688-8.192,0.992-12.864-3.68c-4.528-4.384-6.08-10.176-3.536-12.72
		c2.4-2.4,8.192-0.848,12.72,3.536C387.52,167.808,389.072,173.616,386.672,176.016z"/>
	<path style="fill:#FFFFFF;" d="M406.928,328.688c-29.76,43.36-63.52,49.76-136.16,50.24c-3.2,0-6.08-2.24-6.72-5.44l-5.44-28.64
		C308.048,344.688,357.488,339.248,406.928,328.688z"/>
	<path style="fill:#FFFFFF;" d="M105.168,328.688c50.56,10.72,100.96,16.16,151.52,16.16l-4.32,28.48
		c-0.48,3.36-3.36,5.76-6.72,5.76C169.968,378.608,135.248,373.008,105.168,328.688z"/>
</g>
<path style="fill:#E24B4B;" d="M256.048,449.168c27.744,0,54.096-6.16,77.936-17.152c-7.952-30.848-35.296-53.152-74.384-38.944
	c-9.552,3.392-19.6,5.008-29.472,5.008c-26.336-0.208-44,14.48-51.104,34.4C202.592,443.184,228.624,449.168,256.048,449.168z"/>
<g>
</g>
<g>
</g>
<g>
</g>
<g>
</g>
<g>
</g>
<g>
</g>
<g>
</g>
<g>
</g>
<g>
</g>
<g>
</g>
<g>
</g>
<g>
</g>
<g>
</g>
<g>
</g>
<g>
</g>
</svg>
