<?xml version="1.0" encoding="iso-8859-1"?>
<!-- Generator: Adobe Illustrator 19.0.0, SVG Export Plug-In . SVG Version: 6.00 Build 0)  -->
<svg version="1.1" id="Capa_1" xmlns="http://www.w3.org/2000/svg" xmlns:xlink="http://www.w3.org/1999/xlink" x="0px" y="0px"
	 viewBox="0 0 511.994 511.994" style="enable-background:new 0 0 511.994 511.994;" xml:space="preserve">
<path style="fill:#E24B4B;" d="M505.853,262.138c0,138.048-111.968,249.856-249.856,249.856
	c-138.048,0-249.856-111.808-249.856-249.856c0-137.888,111.808-249.856,249.856-249.856
	C393.885,12.282,505.853,124.25,505.853,262.138z"/>
<path style="fill:#D03F3F;" d="M505.853,262.138c0,138.048-111.968,249.856-249.856,249.856
	c-78.704,0-148.976-36.384-194.576-93.232c42.784,34.352,96.976,54.816,156.16,54.816c137.888,0,249.856-111.808,249.856-249.856
	c0-59.184-20.464-113.376-54.976-156.16C469.469,113.322,505.853,183.434,505.853,262.138z"/>
<path style="fill:#3E4347;" d="M344.733,426.89c-57.92-23.12-119.536-23.104-177.472,0c-11.072,4.512-22.144-5.952-20.416-17.888
	c4.864-58.48,57.904-47.024,109.152-39.168c51.248-7.888,104.288-19.312,109.136,39.168
	C366.877,420.938,355.805,431.402,344.733,426.89z"/>
<g>
	<path style="fill:#FFFFFF;" d="M357.869,383.354c-4.48-7.984-11.504-13.344-20-16.256c-0.72,8.288-4.368,21.104-9.888,32.624
		c-1.136,2.8-2.576,5.536-4.016,7.92c-1.312,2.016-0.608,4.64,1.36,5.728c0.128,0.208,0.272,0.256,0.272,0.256
		c1.712,0.848,3.648,0.432,4.96-0.688c3.472-3.136,10.16-9.376,17.968-18.608C351.165,391.29,355.101,387.114,357.869,383.354z"/>
	<path style="fill:#FFFFFF;" d="M154.429,382.858c2.752,3.776,6.4,8.4,9.04,11.472c7.792,9.232,14.496,15.472,17.968,18.608
		c1.312,1.136,3.248,1.504,4.944,0.688c-0.016-0.016,0.16-0.032,0.272-0.256c1.952-1.088,2.688-3.664,1.36-5.728
		c-1.44-2.384-2.864-5.12-4.016-7.92c-5.52-11.536-9.248-24.272-9.952-32.592C166.029,369.946,158.893,374.89,154.429,382.858z"/>
	<path style="fill:#FFFFFF;" d="M221.709,382.858c0.4-1.44-1.168-2.864-3.296-3.28c-0.16-0.112-0.336-0.128-0.336-0.128
		c-1.808-0.272-3.392,0.144-4.16,0.976c-1.952,2.272-5.424,7.088-7.84,15.312c-1.712,5.312-2.96,12.272-3.712,20.24
		c7.36-1.728,14.768-3.088,22.192-4.064c-1.776-8.144-3.376-16.656-3.264-23.248C221.149,386.554,221.325,384.506,221.709,382.858z"
		/>
	<path style="fill:#FFFFFF;" d="M309.677,415.994c-1.6-20.4-8.032-32.032-11.536-35.568c-0.912-0.832-2.512-1.248-4.16-0.96
		c-0.16,0-0.16,0-0.496,0.128c-2.144,0.432-3.536,1.824-3.136,3.28c1.584,6.896-0.544,18.208-2.944,29.056
		C294.877,412.906,302.285,414.25,309.677,415.994z"/>
</g>
<g>
	<path style="fill:#D03F3F;" d="M283.229,268.122c0,69.328-12.224,75.408-27.232,75.408c-15.008,0-27.232-6.064-27.232-75.408
		c0-41.664,12.224-75.616,27.232-75.616C271.005,192.506,283.229,226.458,283.229,268.122z"/>
	<circle style="fill:#D03F3F;" cx="274.237" cy="305.434" r="25.584"/>
	<circle style="fill:#D03F3F;" cx="237.821" cy="305.434" r="25.584"/>
</g>
<path style="fill:#3E4347;" d="M348.925,86.218c10.288,6.656,23.68,15.264,35.776,23.04c26.288,16.896,47.92,40.656,59.84,69.536
	c1.104,2.672,2.08,5.312,2.928,7.904c36.064-52.96,41.76-130.88,34.928-165.008c-5.68-30.704-30.048-24.304-29.744-8.432
	C446.813,62.618,382.941,79.162,348.925,86.218z"/>
<path style="fill:#D03F3F;" d="M336.637,84.042c20.304,1.632,58.336,18.528,82.48,45.392c21.072,22,35.584,52.816,36.56,86.704
	c-7.888-16-22.432-49.728-48.272-75.808C391.597,122.026,357.453,96.346,336.637,84.042z"/>
<path style="fill:#3E4347;" d="M163.069,86.218c-10.288,6.656-23.68,15.264-35.776,23.04c-26.288,16.896-47.92,40.656-59.84,69.536
	c-1.104,2.672-2.096,5.312-2.928,7.904c-36.064-52.96-41.76-130.88-34.928-165.008c5.68-30.704,30.048-24.304,29.728-8.432
	C65.181,62.618,129.053,79.162,163.069,86.218z"/>
<path style="fill:#D03F3F;" d="M175.357,84.042c-31.584,18.656-60.16,44.016-70.768,56.272c-25.84,26.08-40.4,59.808-48.272,75.808
	c0.976-33.856,15.68-64.896,36.56-86.688C116.701,102.906,154.749,85.69,175.357,84.042z"/>
<circle style="fill:#FFFFFF;" cx="163.165" cy="236.058" r="51.84"/>
<ellipse style="fill:#3E4347;" cx="163.165" cy="236.026" rx="28.096" ry="28.032"/>
<path style="fill:#5A5F63;" d="M177.885,230.314c-2.032,1.648-5.296,0.96-7.536-1.6c-2.224-2.416-2.4-5.936-0.368-7.584
	c1.888-1.776,5.296-1.104,7.52,1.456C179.741,225.162,179.901,228.538,177.885,230.314z"/>
<circle style="fill:#FFFFFF;" cx="348.829" cy="236.058" r="51.84"/>
<ellipse style="fill:#3E4347;" cx="348.829" cy="236.026" rx="28.096" ry="28.032"/>
<path style="fill:#5A5F63;" d="M363.549,230.314c-2.032,1.648-5.296,0.96-7.536-1.6c-2.224-2.416-2.4-5.936-0.368-7.584
	c1.888-1.776,5.296-1.104,7.52,1.456C365.405,225.162,365.565,228.538,363.549,230.314z"/>
<g>
</g>
<g>
</g>
<g>
</g>
<g>
</g>
<g>
</g>
<g>
</g>
<g>
</g>
<g>
</g>
<g>
</g>
<g>
</g>
<g>
</g>
<g>
</g>
<g>
</g>
<g>
</g>
<g>
</g>
</svg>
