<svg id="Layer_1" enable-background="new 0 0 512 512" height="512" viewBox="0 0 512 512" width="512" xmlns="http://www.w3.org/2000/svg"><g><g><path d="m280 316.212h-32c-70.692 0-128-57.307-128-128 0-70.692 57.307-128 128-128h32c70.692 0 128 57.307 128 128 0 70.692-57.307 128-128 128z" fill="#289bc3"/></g><g><g><path d="m256 380.212h-68.118c-12.73 0-24.939 5.057-33.941 14.059l-17.941 17.941 40 40 19.314-19.314c3.001-3.001 7.07-4.686 11.314-4.686h49.372c13.255 0 24-10.745 24-24 0-13.255-10.745-24-24-24z" fill="#fab991"/></g><g><path d="m371.313 368.898c-6.248-6.249-16.379-6.249-22.627 0l-59.314 59.314h-82.745c-4.243 0-8.313 1.686-11.314 4.686l-19.313 19.314 24 24 16-16h76.687c6.411 0 12.438-2.497 16.97-7.03l61.657-61.657c6.248-6.248 6.248-16.379-.001-22.627z" fill="#f0915a"/></g><g><path d="m256 417.545h-5.333c-4.418 0-8-3.582-8-8v-10.667c0-4.418 3.582-8 8-8h5.333c7.364 0 13.333 5.97 13.333 13.333 0 7.365-5.969 13.334-13.333 13.334z" fill="#f0915a"/></g><g><path d="m133.657 409.869 42.343 42.343-40 40h-96l82.343-82.343c3.124-3.125 8.19-3.125 11.314 0z" fill="#555a6e"/></g><g><path d="m176 452.212 26.343 26.343c3.124 3.124 3.124 8.19 0 11.314l-2.343 2.343h-64z" fill="#463c4b"/></g></g><g><circle cx="248" cy="188.212" fill="#00d2d2" r="128"/></g><g><circle cx="248" cy="188.212" fill="#289bc3" r="96"/></g><g><path d="m255.174 121.469 16.713 33.865 37.372 5.43c6.562.953 9.182 9.017 4.434 13.646l-27.043 26.36 6.384 37.221c1.121 6.535-5.739 11.519-11.608 8.433l-33.426-17.573-33.427 17.573c-5.869 3.086-12.728-1.898-11.608-8.433l6.384-37.221-27.043-26.36c-4.748-4.628-2.128-12.692 4.434-13.646l37.372-5.43 16.713-33.865c2.936-5.946 11.414-5.946 14.349 0z" fill="#d7e6f0"/></g><g><path d="m456 204.212h-16c-8.836 0-16-7.164-16-16s7.164-16 16-16h16c8.836 0 16 7.164 16 16s-7.164 16-16 16z" fill="#00d2d2"/></g><g><path d="m359.985 65.65c-2.714 0-5.465-.691-7.985-2.146-7.653-4.418-10.275-14.204-5.856-21.856l8-13.856c4.418-7.652 14.203-10.275 21.856-5.856 7.653 4.418 10.275 14.204 5.856 21.856l-8 13.856c-2.963 5.133-8.341 8.002-13.871 8.002z" fill="#00d2d2"/></g><g><path d="m368.015 356.635c-5.53 0-10.908-2.869-13.872-8.003l-8-13.856c-4.418-7.653-1.796-17.438 5.856-21.856 7.653-4.419 17.438-1.796 21.856 5.856l8 13.856c4.418 7.653 1.796 17.438-5.856 21.856-2.519 1.455-5.27 2.147-7.984 2.147z" fill="#00d2d2"/></g><g><path d="m88 204.212h-16c-8.836 0-16-7.164-16-16s7.164-16 16-16h16c8.836 0 16 7.164 16 16s-7.164 16-16 16z" fill="#00d2d2"/></g><g><path d="m159.985 356.635c-2.714 0-5.465-.691-7.985-2.146-7.653-4.418-10.275-14.204-5.856-21.856l8-13.856c4.418-7.652 14.204-10.275 21.856-5.856s10.275 14.204 5.856 21.856l-8 13.856c-2.963 5.132-8.341 8.002-13.871 8.002z" fill="#00d2d2"/></g><g><path d="m168.015 65.65c-5.53 0-10.908-2.869-13.872-8.003l-8-13.856c-4.418-7.653-1.796-17.438 5.856-21.856 7.653-4.419 17.438-1.796 21.856 5.856l8 13.856c4.418 7.653 1.796 17.438-5.856 21.856-2.519 1.456-5.27 2.147-7.984 2.147z" fill="#00d2d2"/></g></g></svg>