<svg xmlns="http://www.w3.org/2000/svg" xmlns:xlink="http://www.w3.org/1999/xlink" version="1.1" id="Capa_1" x="0px" y="0px" viewBox="0 0 455.431 455.431" style="enable-background:new 0 0 455.431 455.431;" xml:space="preserve" width="512" height="512"><g><path style="fill:#EEC600" d="M405.493,412.764c-69.689,56.889-287.289,56.889-355.556,0c-69.689-56.889-62.578-300.089,0-364.089  s292.978-64,355.556,0S475.182,355.876,405.493,412.764z" data-original="#5CA4DA" class="active-path" data-old_color="#5CA4DA"></path><path style="fill:#FFD700" d="M229.138,313.209c-62.578,49.778-132.267,75.378-197.689,76.8  c-48.356-82.489-38.4-283.022,18.489-341.333c51.2-52.622,211.911-62.578,304.356-29.867  C377.049,112.676,330.116,232.142,229.138,313.209z" data-original="#6DAFE0" class="" data-old_color="#6DAFE0"></path><path style="fill:#FFFFFF" d="M172.249,89.92h110.933v274.489h-58.311V142.542h-52.622L172.249,89.92L172.249,89.92z" data-original="#FFFFFF" class="" data-old_color="#FFFFFF"></path></g> </svg>