<svg xmlns="http://www.w3.org/2000/svg" xmlns:xlink="http://www.w3.org/1999/xlink" width="512" height="512" viewBox="0 0 512 512">
  <defs>
    <clipPath id="clip-hexagon-border">
      <rect width="512" height="512"/>
    </clipPath>
  </defs>
  <g id="hexagon-border" clip-path="url(#clip-hexagon-border)">
    <g id="Polygon_2" data-name="Polygon 2" transform="translate(25.219 56)" fill="none">
      <path d="M334.954,0a20,20,0,0,1,17.319,10l103.95,180a20,20,0,0,1,0,20L352.274,390a20,20,0,0,1-17.319,10H127.045a20,20,0,0,1-17.319-10L5.776,210a20,20,0,0,1,0-20L109.726,10A20,20,0,0,1,127.046,0Z" stroke="none"/>
      <path d="M 127.0455322265625 19.99990844726563 L 23.095458984375 200 L 127.0454711914063 380 L 334.9545288085938 380 L 438.9044494628906 200 L 334.9544677734375 20 L 127.0455322265625 20 L 127.0455322265625 19.99990844726563 M 127.0455322265625 0 L 334.9544677734375 0 C 342.0989990234375 0 348.700927734375 3.8111572265625 352.27392578125 9.99798583984375 L 456.2238464355469 189.9980773925781 C 459.7980041503906 196.1870727539063 459.7980041503906 203.8129272460938 456.2238464355469 210.0019226074219 L 352.27392578125 390.0019226074219 C 348.700927734375 396.1888427734375 342.0989990234375 400 334.9545288085938 400 L 127.0454711914063 400 C 119.9010009765625 400 113.299072265625 396.1888427734375 109.72607421875 390.0019226074219 L 5.77606201171875 210.0019226074219 C 2.201934814453125 203.8129272460938 2.201934814453125 196.1870727539063 5.77606201171875 189.9980773925781 L 109.7261657714844 9.99798583984375 C 113.299072265625 3.8111572265625 119.9010009765625 0 127.0455322265625 0 Z" stroke="none" fill="#1589ff"/>
    </g>
  </g>
</svg>
