<svg xmlns="http://www.w3.org/2000/svg" xmlns:xlink="http://www.w3.org/1999/xlink" width="512" height="512" viewBox="0 0 512 512">
  <defs>
    <clipPath id="clip-linear">
      <rect width="512" height="512"/>
    </clipPath>
  </defs>
  <g id="linear" clip-path="url(#clip-linear)">
    <rect width="512" height="512" fill="#fff"/>
    <line id="Line_2" data-name="Line 2" y2="500" transform="translate(256.5 6)" fill="none" stroke="#d3d3d3" stroke-linecap="round" stroke-width="5"/>
    <path id="arrowY" d="M8.9,4.523a3,3,0,0,1,5.2,0L20.415,15.5a3,3,0,0,1-2.6,4.5H5.186a3,3,0,0,1-2.6-4.5Z" transform="translate(245)" fill="#d3d3d3"/>
    <path id="arrowX" d="M8.9,4.523a3,3,0,0,1,5.2,0L20.415,15.5a3,3,0,0,1-2.6,4.5H5.186a3,3,0,0,1-2.6-4.5Z" transform="translate(512.5 244.5) rotate(90)" fill="#d3d3d3"/>
    <line id="lineY" y2="500" transform="translate(256.5 6)" fill="none" stroke="#d3d3d3" stroke-linecap="round" stroke-width="5"/>
    <line id="lineX" y2="500" transform="translate(506.5 256) rotate(90)" fill="none" stroke="#d3d3d3" stroke-linecap="round" stroke-width="5"/>
    <line id="Line_1" data-name="Line 1" x1="475" y2="475" transform="translate(17.5 20.5)" fill="none" stroke="#1589ff" stroke-linecap="round" stroke-width="20"/>
  </g>
</svg>
