<svg xmlns="http://www.w3.org/2000/svg" xmlns:xlink="http://www.w3.org/1999/xlink" width="512" height="512" viewBox="0 0 512 512">
  <defs>
    <clipPath id="clip-quadratic">
      <rect width="512" height="512"/>
    </clipPath>
  </defs>
  <g id="quadratic" clip-path="url(#clip-quadratic)">
    <rect width="512" height="512" fill="#fff"/>
    <line id="lineY" y2="500" transform="translate(256.5 6)" fill="none" stroke="#d3d3d3" stroke-linecap="round" stroke-width="5"/>
    <path id="arrowY" d="M8.9,4.523a3,3,0,0,1,5.2,0L20.415,15.5a3,3,0,0,1-2.6,4.5H5.186a3,3,0,0,1-2.6-4.5Z" transform="translate(245)" fill="#d3d3d3"/>
    <line id="lineX" y2="500" transform="translate(506.5 256) rotate(90)" fill="none" stroke="#d3d3d3" stroke-linecap="round" stroke-width="5"/>
    <path id="arrowX" d="M8.9,4.523a3,3,0,0,1,5.2,0L20.415,15.5a3,3,0,0,1-2.6,4.5H5.186a3,3,0,0,1-2.6-4.5Z" transform="translate(512.5 244.5) rotate(90)" fill="#d3d3d3"/>
    <g id="Plot_1" transform="translate(-60.808 -30.1)">
      <g id="Group_1" data-name="Group 1" transform="translate(112.3 50.5)">
        <path id="Path_1" data-name="Path 1" d="M112.3,50.5l.054.428.91,4.176.91,4.176.91,4.123.91,4.123.91,4.123.91,4.069.91,4.069.91,4.016.91,4.016.857,4.016.91,4.016.91,3.962.91,3.962.91,3.909.91,3.909.91,3.909.91,3.909.91,3.855.91,3.8.857,3.855.91,3.8.91,3.748.91,3.8.91,3.748.91,3.694.91,3.748.91,3.694.91,3.641.91,3.694.91,3.587.857,3.641.91,3.587.91,3.587.91,3.587.91,3.534.91,3.534.91,3.48.91,3.48.91,3.48.91,3.48.91,3.427.857,3.373.91,3.427.91,3.373.91,3.373.91,3.32.91,3.32.91,3.32.91,3.266.91,3.266.91,3.266.857,3.213.91,3.213.91,3.159.91,3.213.91,3.159.91,3.106.91,3.105.91,3.105.91,3.105.91,3.052.91,3.052.857,3,.91,3,.91,3,.91,3,.91,2.945.91,2.891.91,2.945.91,2.891.91,2.891.91,2.838.857,2.838.91,2.838.91,2.784.91,2.784.91,2.784.91,2.731.91,2.731.91,2.677.91,2.731.91,2.624.91,2.677.857,2.624.91,2.624.91,2.624.91,2.57.91,2.57.91,2.517.91,2.517.91,2.516.91,2.463.91,2.463.857,2.463.91,2.463.91,2.409.91,2.356.91,2.409.91,2.356.91,2.3.91,2.356.91,2.3.91,2.249.91,2.3.857,2.2.91,2.249.91,2.2.91,2.2.91,2.2.91,2.142.91,2.142.91,2.088.91,2.088.91,2.088.857,2.088.91,2.035.91,2.035.91,1.981.91,1.981.91,1.981.91,1.928.91,1.928.91,1.927.91,1.874.91,1.874.857,1.874.91,1.82.91,1.82.91,1.82.91,1.767.91,1.767.91,1.713.91,1.767.91,1.713.91,1.66.857,1.66.91,1.66.91,1.66.91,1.606.91,1.606.91,1.553.91,1.553.91,1.553.91,1.5.91,1.5.91,1.5.857,1.446.91,1.5.91,1.392.91,1.446.91,1.392.91,1.339.91,1.339.91,1.339.91,1.339.91,1.285.857,1.285.91,1.285.91,1.232.91,1.231.91,1.178.91,1.231.91,1.124.91,1.178.91,1.124.91,1.124.91,1.071.857,1.071.91,1.071.91,1.017.91,1.017.91,1.017.91,1.017.91.964.91.91.91.964.91.91.91.857.857.857.91.857.91.857.91.8.91.8.91.8.91.75.91.75.91.7.91.7.857.7.91.7.91.642.91.643.91.589.91.589.91.589.91.535.91.536.91.535.91.482.857.482.91.482.91.428.91.429.91.428.91.375.91.375.91.375.91.321.91.321.857.268.91.321.91.268.91.214.91.214.91.214.91.16.91.214.91.107.91.161.91.107.857.107.91.054.91.054.91.054h2.731l.91-.054.91-.054.91-.054.857-.107.91-.107.91-.161.91-.107.91-.214.91-.16.91-.214.91-.214.91-.214.91-.268.91-.321.857-.268.91-.321.91-.321.91-.375.91-.375.91-.375.91-.428.91-.429.91-.428.91-.482.857-.482.91-.482.91-.535.91-.536.91-.535.91-.589.91-.589.91-.589.91-.643.91-.642.91-.7.857-.7.91-.7.91-.7.91-.75.91-.75.91-.8.91-.8.91-.8.91-.857.91-.857.857-.857.91-.857.91-.91.91-.964.91-.91.91-.964.91-1.017.91-1.017.91-1.017.91-1.017.91-1.071.857-1.071.91-1.071.91-1.124.91-1.124.91-1.178.91-1.124.91-1.231.91-1.178.91-1.231.91-1.232.91-1.285.857-1.285.91-1.285.91-1.339.91-1.339.91-1.339.91-1.339.91-1.392.91-1.446.91-1.392.91-1.5.857-1.446.91-1.5.91-1.5.91-1.5.91-1.553.91-1.553.91-1.553.91-1.606.91-1.606.91-1.66.91-1.66.857-1.66.91-1.66.91-1.713.91-1.767.91-1.713.91-1.767.91-1.767.91-1.82.91-1.82.91-1.82.857-1.874.91-1.874.91-1.874.91-1.927.91-1.928.91-1.928.91-1.981.91-1.981.91-1.981.91-2.035.91-2.035.857-2.088.91-2.088.91-2.088.91-2.088.91-2.142.91-2.142.91-2.2.91-2.2.91-2.2.91-2.249.857-2.2.91-2.3.91-2.249.91-2.3.91-2.356.91-2.3.91-2.356.91-2.409.91-2.356.91-2.409.91-2.463.857-2.463.91-2.463.91-2.463.91-2.516.91-2.517.91-2.517.91-2.57.91-2.57.91-2.624.91-2.624.857-2.624.91-2.677.91-2.624.91-2.731.91-2.677.91-2.731.91-2.731.91-2.784.91-2.784.91-2.784.91-2.838.857-2.838.91-2.838.91-2.891.91-2.891.91-2.945.91-2.891.91-2.945.91-3,.91-3,.91-3,.857-3,.91-3.052.91-3.052.91-3.105.91-3.105.91-3.105.91-3.106.91-3.159.91-3.213.91-3.159.91-3.213.857-3.213.91-3.266.91-3.266.91-3.266.91-3.32.91-3.32.91-3.32.91-3.373.91-3.373.91-3.427.857-3.373.91-3.427.91-3.48.91-3.48.91-3.48.91-3.48.91-3.534.91-3.534.91-3.587.91-3.587.91-3.587.857-3.641.91-3.587.91-3.694.91-3.641.91-3.694.91-3.748.91-3.694.91-3.748.91-3.8.91-3.748.91-3.8.857-3.855.91-3.8.91-3.855.91-3.909.91-3.909.91-3.909.91-3.909.91-3.962.91-3.962.91-4.016.857-4.016.91-4.016.91-4.016.91-4.069.91-4.069.91-4.123.91-4.123.91-4.123.91-4.176.91-4.176.053-.428" transform="translate(-112.3 -50.5)" fill="none" stroke="#1589ff" stroke-linecap="round" stroke-width="20"/>
      </g>
    </g>
  </g>
</svg>
