<svg xmlns="http://www.w3.org/2000/svg" xmlns:xlink="http://www.w3.org/1999/xlink" width="512" height="512" viewBox="0 0 512 512">
  <defs>
    <clipPath id="clip-triangle-border">
      <rect width="512" height="512"/>
    </clipPath>
  </defs>
  <g id="triangle-border" clip-path="url(#clip-triangle-border)">
    <g id="Polygon_1" data-name="Polygon 1" transform="translate(16 56)" fill="none">
      <path d="M222.659,28.611a20,20,0,0,1,34.307,0l204.5,341.1A20,20,0,0,1,444.316,400H35.31a20,20,0,0,1-17.153-30.284Z" stroke="none"/>
      <path d="M 239.8126525878906 38.89532470703125 L 35.30966186523438 379.9999389648438 L 444.3157348632813 380.0000305175781 L 239.8889617919922 38.90396118164063 C 239.8814239501953 38.90158081054688 239.8530426025391 38.89532470703125 239.8126525878906 38.89532470703125 M 239.8126525878906 18.89532470703125 C 246.4476776123047 18.89532470703125 253.0826873779297 22.13400268554688 256.9660339355469 28.611328125 L 461.4691162109375 369.7160339355469 C 469.461181640625 383.0465698242188 459.8584899902344 399.9999389648438 444.3156433105469 399.9999389648438 L 35.30966186523438 399.9999389648438 C 19.76681518554688 399.9999389648438 10.16412353515625 383.0465698242188 18.15618896484375 369.7160339355469 L 222.6592712402344 28.611328125 C 226.5426177978516 22.13400268554688 233.1776275634766 18.89532470703125 239.8126525878906 18.89532470703125 Z" stroke="none" fill="#1589ff"/>
    </g>
  </g>
</svg>
