<?xml version="1.0" encoding="iso-8859-1"?>
<!-- Generator: Adobe Illustrator 19.0.0, SVG Export Plug-In . SVG Version: 6.00 Build 0)  -->
<svg version="1.1" id="Capa_1" xmlns="http://www.w3.org/2000/svg" xmlns:xlink="http://www.w3.org/1999/xlink" x="0px" y="0px"
	 viewBox="0 0 511.998 511.998" style="enable-background:new 0 0 511.998 511.998;" xml:space="preserve">
<g>
	<path style="fill:#FFD93B;" d="M225.967,103.726C157.535,56.734,93.567,16.814,44.719,0.894
		c-12.288-3.872-24.56,5.328-24.56,18.096v257.136l205.824-66.56v-105.84H225.967z"/>
	<path style="fill:#FFD93B;" d="M286.095,103.726c68.432-46.992,132.4-86.912,181.248-102.832
		c12.288-3.872,24.56,5.328,24.56,18.112v257.136l-205.824-66.56V103.726H286.095z"/>
</g>
<g>
	<path style="fill:#F4C534;" d="M139.343,94.59c-31.904-20.72-61.296-37.424-85.376-45.696v123.152
		C78.143,141.438,107.455,114.558,139.343,94.59z"/>
	<path style="fill:#F4C534;" d="M422.079,143.982c12.4,10.8,25.376,22.432,35.952,35.632V48.894
		c-25.552,8.784-57.136,27.136-91.328,49.616C386.495,111.742,404.031,128.27,422.079,143.982z"/>
</g>
<circle style="fill:#FFD93B;" cx="255.999" cy="276.078" r="235.92"/>
<path style="fill:#F4C534;" d="M491.919,276.078c0,130.352-105.648,235.92-235.92,235.92c-74.16,0-140.368-34.208-183.648-87.808
	c40.48,32.736,92,52.272,148.112,52.272c130.272,0,235.92-105.568,235.92-235.92c0-56.096-19.536-107.632-52.272-148.112
	C457.631,135.71,491.919,201.918,491.919,276.078z"/>
<g>
	<path style="fill:#3E4347;" d="M110.335,115.79c0,0,48.144-38.56,104.048-23.152C214.383,92.638,145.359,26.558,110.335,115.79z"/>
	<path style="fill:#3E4347;" d="M401.663,115.79c0,0-48.144-38.56-104.048-23.152C297.615,92.638,366.639,26.558,401.663,115.79z"/>
	<path style="fill:#3E4347;" d="M501.727,149.886v39.616c0,2.048-0.8,3.936-1.968,5.616c-5.52,7.92-3.872,14.288-3.872,36.608
		c0,61.84-40.976,106.784-97.504,106.784c-59.792,0-110.992-50.56-126.256-101.024c-2.16-7.136-8.672-12.016-16.144-12.016l0,0
		c-7.456,0-13.968,4.88-16.128,12.016C224.591,287.95,173.391,338.51,113.599,338.51c-56.512,0-97.504-44.944-97.504-106.784
		c0-22.336,1.664-28.704-3.872-36.624c-1.168-1.68-1.968-3.568-1.968-5.616v-39.6c0-6.064,6.08-10.72,12.592-8.432
		c15.296,5.408,32.08,1.312,46.512-6.112c39.088-20.096,107.136-8.4,140.192,12.4c29.152,18.336,62.208,19.296,92.88,0
		c32.752-20.608,100.784-32.656,140.192-12.4c14.432,7.424,31.216,11.52,46.512,6.112
		C495.647,139.15,501.727,143.806,501.727,149.886z"/>
</g>
<g>
	<path style="fill:#65B1EF;" d="M283.887,207.038c0,47.472,55.312,110.624,114.432,110.624c47.472,0,76.752-38.496,76.752-85.968
		s-29.264-85.968-76.752-85.968C350.847,145.726,283.887,159.55,283.887,207.038z"/>
	<path style="fill:#65B1EF;" d="M228.095,207.038c0,47.472-55.312,110.624-114.432,110.624c-47.472,0-76.736-38.496-76.736-85.968
		s29.264-85.968,76.736-85.968S228.095,159.55,228.095,207.038z"/>
</g>
<g>
	<path style="fill:#4E99D2;" d="M161.887,150.542L43.647,268.798c5.472,14.112,14.112,26.112,25.584,34.672l136.048-136.048
		C193.407,159.374,178.063,153.934,161.887,150.542z"/>
	<path style="fill:#4E99D2;" d="M37.167,238.27c0.448,7.696,1.696,15.072,3.648,22.064l111.552-111.552
		c-7.776-1.248-15.568-2.064-23.184-2.528L37.167,238.27z"/>
	<path style="fill:#4E99D2;" d="M420.351,148.862L305.295,263.918c8.192,11.296,18.352,21.776,29.824,30.432l121.136-121.136
		C447.183,161.694,435.055,153.15,420.351,148.862z"/>
	<path style="fill:#4E99D2;" d="M300.767,257.166l110.336-110.352c-4.112-0.656-8.352-1.088-12.8-1.088
		c-3.936,0-8.016,0.144-12.16,0.336l-94.368,94.368C294.255,246.094,297.263,251.678,300.767,257.166z"/>
</g>
<path style="fill:#7A5B44;" d="M294.207,326.83c0,13.616-15.44,25.408-26.624,32.112c-7.312,4.272-15.856,4.272-23.168,0
	c-10.976-6.704-26.624-18.496-26.624-32.112c0-21.136,17.28-23.376,38.208-23.376C277.135,303.47,294.207,305.694,294.207,326.83z"
	/>
<path style="fill:#6B503B;" d="M294.207,326.83c0,13.616-15.44,25.408-26.624,32.112c-7.312,4.272-15.856,4.272-23.168,0
	c-6.704-4.064-15.44-10.16-20.928-17.488c3.248,2.448,6.496,4.48,9.344,6.304c8.336,4.88,18.08,4.88,26.416,0
	c12.608-7.504,29.664-20.736,30.288-35.76C292.575,315.454,294.207,320.334,294.207,326.83z"/>
<path style="fill:#3E4347;" d="M387.855,380.83c-19.04,51.792-68.992,88.896-127.92,88.896c-58.784,0-108.88-37.104-127.92-89.008
	c-1.376-4.048,3.344-7.472,8.064-5.824c46.448,16.832,192.96,17.088,239.712,0.128C384.495,373.23,389.375,376.782,387.855,380.83z"
	/>
<path style="fill:#E24B4B;" d="M259.919,469.726c23.056,0,44.704-5.744,63.696-15.76c-5.12-20.48-31.984-31.92-54.688-23.776
	c-7.12,2.56-15.008,2.864-22.448,1.024c-21.152-5.232-43.696,5.36-49.6,23.088C215.743,464.126,237.167,469.726,259.919,469.726z"/>
<path style="fill:#FFFFFF;" d="M374.239,376.67c-10.56,14.544-25.024,24.448-42.064,31.216l-5.12,21.056l-8.144-16.8
	c-17.792,4.896-37.84,6.896-58.944,6.896c-21.264,0-41.312-2-59.104-7.008l-7.984,16.912l-5.12-21.184
	c-17.04-6.64-31.504-16.672-42.064-31.216C195.119,391.07,324.479,391.326,374.239,376.67z"/>
<g>
	<path style="fill:#3E4347;" d="M363.167,357.054c22.96,4.4,57.248,20.032,88.64,46.944c27.568,23.872,42.976,47.776,59.648,79.504
		c-17.68-30.56-34.032-53.936-62.208-76.432c-31.488-24.864-65.984-38.96-87.488-42.128c-2.192-0.32-3.696-2.352-3.376-4.544
		c0.32-2.192,2.352-3.696,4.544-3.376C362.975,357.022,363.119,357.054,363.167,357.054z"/>
	<path style="fill:#3E4347;" d="M391.215,351.742c15.04,1.264,40.544,7.808,60.048,17.216c23.12,10.8,36.016,22.48,49.2,37.056
		c-14.288-13.856-27.456-24.256-50.784-33.376c-19.52-7.904-44.784-12.656-58.96-12.896c-2.208-0.032-3.968-1.856-3.936-4.064
		c0.032-2.208,1.856-3.968,4.064-3.936c0.096,0,0.176,0,0.256,0.016L391.215,351.742z"/>
	<path style="fill:#3E4347;" d="M413.167,342.334c12.928-2.928,33.872-3.488,50.144,0c30.32,6.848,42.944,23.504,42.944,23.504
		c-0.08,0.096-13.216-15.216-43.6-19.568c-15.952-2.08-35.776,0.112-47.488,3.808c-2.112,0.672-4.352-0.496-5.024-2.608
		s0.496-4.352,2.608-5.024c0.112-0.032,0.208-0.064,0.32-0.08L413.167,342.334z"/>
	<path style="fill:#3E4347;" d="M148.831,357.054c-22.976,4.4-57.248,20.032-88.64,46.944
		c-27.568,23.872-42.976,47.776-59.648,79.504c17.68-30.56,34.032-53.936,62.208-76.432c31.504-24.864,65.984-38.96,87.488-42.128
		c2.192-0.32,3.696-2.352,3.376-4.544c-0.32-2.192-2.352-3.696-4.544-3.376C149.023,357.022,148.879,357.054,148.831,357.054z"/>
	<path style="fill:#3E4347;" d="M120.783,351.742c-15.04,1.264-40.544,7.808-60.048,17.216c-23.12,10.8-36.016,22.48-49.2,37.056
		c14.288-13.856,27.44-24.256,50.784-33.376c19.52-7.904,44.784-12.656,58.96-12.896c2.208-0.032,3.968-1.856,3.936-4.064
		c-0.032-2.24-1.856-4-4.064-3.968c-0.08,0-0.176,0-0.256,0.016L120.783,351.742z"/>
	<path style="fill:#3E4347;" d="M98.831,342.334c-12.928-2.928-33.872-3.488-50.144,0c-30.32,6.848-42.944,23.504-42.944,23.504
		c0.08,0.096,13.232-15.216,43.616-19.568c15.952-2.08,35.76,0.112,47.488,3.808c2.112,0.672,4.368-0.496,5.024-2.608
		c0.672-2.112-0.496-4.352-2.608-5.024c-0.112-0.032-0.208-0.064-0.32-0.08L98.831,342.334z"/>
</g>
<g>
</g>
<g>
</g>
<g>
</g>
<g>
</g>
<g>
</g>
<g>
</g>
<g>
</g>
<g>
</g>
<g>
</g>
<g>
</g>
<g>
</g>
<g>
</g>
<g>
</g>
<g>
</g>
<g>
</g>
</svg>
