<?xml version="1.0"?>
<svg xmlns="http://www.w3.org/2000/svg" xmlns:xlink="http://www.w3.org/1999/xlink" version="1.1" id="Capa_1" x="0px" y="0px" viewBox="0 0 512 512" style="enable-background:new 0 0 512 512;" xml:space="preserve" width="512px" height="512px"><g><g>
	<g>
		<path d="M256,18.111c-8.291,0-15,6.709-15,15v45c0,8.291,6.709,15,15,15s15-6.709,15-15v-45C271,24.82,264.291,18.111,256,18.111z    " data-original="#000000" class="active-path" data-old_color="#000000" fill="#FFD700"/>
	</g>
</g><g>
	<g>
		<path d="M176.606,112.505l-30-30c-5.86-5.859-15.352-5.859-21.211,0s-5.859,15.352,0,21.211l30,30    c5.859,5.859,15.352,5.859,21.211,0C182.465,127.857,182.465,118.364,176.606,112.505z" data-original="#000000" class="active-path" data-old_color="#000000" fill="#FFD700"/>
	</g>
</g><g>
	<g>
		<path d="M386.606,82.505c-5.859-5.859-15.352-5.859-21.211,0l-30,30c-5.859,5.859-5.859,15.352,0,21.211    c5.859,5.859,15.352,5.859,21.211,0l30-30C392.465,97.857,392.465,88.364,386.606,82.505z" data-original="#000000" class="active-path" data-old_color="#000000" fill="#FFD700"/>
	</g>
</g><g>
	<g>
		<path d="M497,228.111h-46v210h46c8.291,0,15-6.709,15-15v-180C512,234.82,505.291,228.111,497,228.111z" data-original="#000000" class="active-path" data-old_color="#000000" fill="#FFD700"/>
	</g>
</g><g>
	<g>
		<path d="M15,228.111c-8.291,0-15,6.709-15,15v180c0,8.291,6.709,15,15,15h46v-210H15z" data-original="#000000" class="active-path" data-old_color="#000000" fill="#FFD700"/>
	</g>
</g><g>
	<g>
		<path d="M244.545,243.111c-11.441,0-21.724,6.357-26.836,16.582L172.05,351.04c7.646,3.354,15.732,5.054,23.994,5.054    c22.837,0,43.389-12.729,53.628-33.237l9.873-19.746h29.033c7.896,0,15.63,3.208,21.211,8.789L421,423.111v-180H244.545z" data-original="#000000" class="active-path" data-old_color="#000000" fill="#FFD700"/>
	</g>
</g><g>
	<g>
		<path d="M288.578,333.111H278.09l-0.866,1.734c-14.169,28.336-41.801,48.342-73.378,50.923    c-23.234,1.901-39.335-4.783-58.427-13.467c-7.764-3.53-11.142-12.806-7.328-20.435l52.775-105.577    c10.164-20.334,30.947-33.179,53.679-33.179h64.733c4.155-9.203,6.722-19.25,6.722-30c0-8.291-6.709-15-15-15H184.545    c-17.049,0-32.633,9.631-40.258,24.88l-13.412,26.825c-2.542,5.083-7.736,8.295-13.42,8.295H91v210h68.789l42.495,42.495    c12.318,12.318,30.06,16.207,45.366,11.089l128.101-40.269c7.656-2.155,14.11-6.367,19.374-11.768L288.578,333.111z" data-original="#000000" class="active-path" data-old_color="#000000" fill="#FFD700"/>
	</g>
</g></g> </svg>
