<?xml version="1.0" encoding="iso-8859-1"?>
<!-- Generator: Adobe Illustrator 19.0.0, SVG Export Plug-In . SVG Version: 6.00 Build 0)  -->
<svg version="1.1" id="Capa_1" xmlns="http://www.w3.org/2000/svg" xmlns:xlink="http://www.w3.org/1999/xlink" x="0px" y="0px"
	 viewBox="0 0 512 512" style="enable-background:new 0 0 512 512;" xml:space="preserve">
<g>
	<path style="fill:#FFD93B;" d="M227.488,106.385C162.496,61.761,101.744,23.841,55.344,8.721
		c-11.664-3.68-23.328,5.072-23.328,17.2v244.208l195.472-63.216V106.385z"/>
	<path style="fill:#FFD93B;" d="M284.576,106.385C349.568,61.761,410.32,23.841,456.72,8.721
		c11.664-3.68,23.328,5.072,23.328,17.184v244.208l-195.472-63.216V106.385z"/>
</g>
<g>
	<path style="fill:#F4C534;" d="M145.216,97.713c-30.304-19.68-58.224-35.552-81.088-43.408v116.96
		C87.088,142.193,114.928,116.657,145.216,97.713z"/>
	<path style="fill:#F4C534;" d="M413.728,144.625c11.776,10.256,24.096,21.296,34.144,33.84V54.305
		c-24.272,8.336-54.256,25.76-86.736,47.12C379.92,113.985,396.592,129.697,413.728,144.625z"/>
</g>
<circle style="fill:#FFD93B;" cx="256" cy="255.041" r="224.48"/>
<path style="fill:#F4C534;" d="M480.432,255.041c0,124-100.512,224.432-224.432,224.432c-70.56,0-133.536-32.544-174.704-83.536
	c38.512,31.136,87.536,49.728,140.912,49.728c123.936,0,224.432-100.432,224.432-224.432c0-53.376-18.592-102.4-49.728-140.896
	C447.824,121.505,480.432,184.481,480.432,255.041z"/>
<g>
	<path style="fill:#3E4347;" d="M167.584,94.529c0,0-45.6-6.416-93.472,49.008C74.112,143.553,105.072,44.273,167.584,94.529z"/>
	<path style="fill:#3E4347;" d="M344.416,94.529c0,0,45.6-6.416,93.472,49.008C437.888,143.553,406.944,44.273,344.416,94.529z"/>
</g>
<path style="fill:#7A5B44;" d="M283.712,313.457c0,9.872-11.2,18.416-19.312,23.28c-5.296,3.088-11.488,3.088-16.8,0
	c-7.952-4.864-19.312-13.408-19.312-23.28c0-15.328,12.528-16.944,27.712-16.944C271.328,296.513,283.712,298.129,283.712,313.457z"
	/>
<path style="fill:#6B503B;" d="M283.712,313.457c0,9.872-11.2,18.416-19.312,23.28c-5.296,3.088-11.488,3.088-16.8,0
	c-4.864-2.944-11.2-7.376-15.184-12.688c2.352,1.776,4.72,3.248,6.784,4.576c6.048,3.536,13.12,3.536,19.152,0
	c9.136-5.44,21.52-15.04,21.952-25.936C282.528,305.201,283.712,308.753,283.712,313.457z"/>
<g>
	<path style="fill:#3E4347;" d="M383.184,360.385c0,0,11.568,3.92,26.24,13.488c53.504,33.424,69.344,78.992,76.096,130.256
		c-8.272-45.984-23.248-92.4-79.808-124.176c-14.656-8.56-25.2-11.552-25.2-11.552c-2.24-0.624-3.552-2.96-2.912-5.216
		c0.64-2.24,2.976-3.552,5.216-2.912c0.064,0.016,0.128,0.048,0.192,0.064L383.184,360.385z"/>
	<path style="fill:#3E4347;" d="M396.272,345.329c31.84,3.904,71.616,26.16,101.104,71.92
		c-31.792-42.768-72.08-62.032-101.936-63.52c-2.336-0.112-4.128-2.096-4.016-4.416c0.112-2.336,2.096-4.128,4.432-4.016
		c0.096,0,0.192,0.016,0.288,0.032L396.272,345.329z"/>
	<path style="fill:#3E4347;" d="M401.296,323.441c9.28,0.576,14.688,0.784,24.304,2.64c16.8,2.8,36.256,11.104,48.56,22.528
		c20.352,17.488,30.144,41.792,37.84,66.512c-8.464-23.152-19.072-47.28-40.208-63.68c-14.688-12.096-33.328-17.488-47.216-19.232
		c-9.456-1.328-14.32-1.28-23.584-1.424c-2.032-0.032-3.664-1.712-3.632-3.728c0.032-2.032,1.696-3.664,3.744-3.632
		C401.168,323.425,401.232,323.425,401.296,323.441z"/>
	<path style="fill:#3E4347;" d="M128.816,360.385c0,0-11.568,3.92-26.256,13.488c-53.504,33.424-69.344,78.992-76.096,130.256
		c8.272-45.984,23.264-92.4,79.808-124.176c14.656-8.56,25.2-11.552,25.2-11.552c2.24-0.624,3.552-2.96,2.912-5.216
		c-0.64-2.24-2.976-3.552-5.216-2.912c-0.064,0.016-0.128,0.048-0.192,0.064L128.816,360.385z"/>
	<path style="fill:#3E4347;" d="M115.728,345.329c-31.84,3.904-71.632,26.16-101.104,71.92
		c31.792-42.768,72.08-62.032,101.936-63.52c2.336-0.112,4.128-2.096,4.016-4.416c-0.112-2.336-2.096-4.128-4.432-4.016
		c-0.096,0-0.192,0.016-0.288,0.032L115.728,345.329z"/>
	<path style="fill:#3E4347;" d="M110.704,323.441c-9.28,0.576-14.688,0.784-24.304,2.64c-16.8,2.8-36.256,11.104-48.56,22.528
		C17.488,366.097,7.696,390.401,0,415.137c8.464-23.152,19.072-47.28,40.208-63.68c14.688-12.096,33.328-17.488,47.216-19.232
		c9.456-1.328,14.32-1.28,23.584-1.424c2.032-0.032,3.664-1.712,3.632-3.728c-0.032-2.032-1.712-3.664-3.744-3.632
		C110.832,323.425,110.768,323.425,110.704,323.441z"/>
</g>
<circle style="fill:#F4C534;" cx="167.632" cy="217.169" r="86.304"/>
<circle style="fill:#FFFFFF;" cx="167.632" cy="217.153" r="70.656"/>
<ellipse style="fill:#3E4347;" cx="182.608" cy="207.473" rx="35.68" ry="35.6"/>
<circle style="fill:#F4C534;" cx="174.624" cy="217.169" r="93.616"/>
<circle style="fill:#FFFFFF;" cx="174.608" cy="217.169" r="76.64"/>
<ellipse style="fill:#3E4347;" cx="190.848" cy="206.657" rx="38.704" ry="38.608"/>
<ellipse transform="matrix(-0.7071 -0.7071 0.7071 -0.7071 215.801 473.2606)" style="fill:#FFFFFF;" cx="205.916" cy="191.936" rx="12.352" ry="7.456"/>
<circle style="fill:#F4C534;" cx="330.72" cy="217.153" r="70.736"/>
<circle style="fill:#FFFFFF;" cx="330.704" cy="217.153" r="57.904"/>
<ellipse style="fill:#3E4347;" cx="330.688" cy="217.169" rx="27.776" ry="27.712"/>
<ellipse transform="matrix(-0.7071 -0.7071 0.7071 -0.7071 436.4114 593.9767)" style="fill:#FFFFFF;" cx="341.222" cy="206.605" rx="8.864" ry="5.344"/>
<path style="fill:#3E4347;" d="M152.256,343.633c27.648,4.608,65.584,11.84,103.824,11.632c38.88,0.416,68.768-5.44,103.648-11.632
	C330.672,360.32,305.296,369.777,256,371.249C235.904,370.481,199.904,370.049,152.256,343.633z"/>
<path style="fill:#E24B4B;" d="M284.704,352.993c13.76-12.656,40.464-10.208,61.2,25.536c11.136,19.2,18.848,40.368,22.704,62.208
	c7.344,41.648-15.408,57.792-35.984,58.752c-22.56,1.04-44.512-14.736-46.72-54.448c-1.312-23.44,3.248-64.416-30.608-73.632
	C253.056,354.577,271.424,344.929,284.704,352.993z"/>
<path style="fill:#D03F3F;" d="M369.872,453.617c-0.112,18.768-17.664,39.568-36.016,36.16
	c-47.968-8.912-34.576-51.568-50.288-82.288c2.208,13.104,1.776,27.072,2.352,37.568c2.208,39.696,24.16,55.488,46.72,54.448
	C350.928,498.625,370.784,485.665,369.872,453.617z"/>
<g>
</g>
<g>
</g>
<g>
</g>
<g>
</g>
<g>
</g>
<g>
</g>
<g>
</g>
<g>
</g>
<g>
</g>
<g>
</g>
<g>
</g>
<g>
</g>
<g>
</g>
<g>
</g>
<g>
</g>
</svg>
