<?xml version="1.0" encoding="iso-8859-1"?>
<!-- Generator: Adobe Illustrator 19.0.0, SVG Export Plug-In . SVG Version: 6.00 Build 0)  -->
<svg version="1.1" id="Capa_1" xmlns="http://www.w3.org/2000/svg" xmlns:xlink="http://www.w3.org/1999/xlink" x="0px" y="0px"
	 viewBox="0 0 511.995 511.995" style="enable-background:new 0 0 511.995 511.995;" xml:space="preserve">
<g>
	<path style="fill:#3E4347;" d="M469.87,19.707c-8.448-30.576-27.152-20.32-25.376-4.432
		c-1.296,58.272-75.888,76.272-103.632,80.944c9.248,16.256,27.616,29.744,39.616,43.776c13.168,15.424,24.464,31.664,32.992,50.096
		c2.176,4.72,4.16,9.472,6.016,14.272c12.144,4.64,23.664,2.688,33.072-10.432C490.382,141.211,480.062,54.699,469.87,19.707z"/>
	<path style="fill:#3E4347;" d="M75.15,205.787c21.888-39.376,57.36-72.288,87.968-111.088
		c-31.872-6.528-94.432-26.096-95.616-79.424c1.792-15.888-16.912-26.144-25.376,4.432C31.934,54.699,21.614,141.211,59.438,193.915
		C64.19,200.555,69.502,204.251,75.15,205.787z"/>
</g>
<path style="fill:#E24B4B;" d="M487.134,280.859c0,127.696-103.584,231.136-231.136,231.136
	c-127.696,0-231.136-103.44-231.136-231.136c0-127.552,103.44-231.136,231.136-231.136
	C383.55,49.723,487.134,153.307,487.134,280.859z"/>
<path style="fill:#D03F3F;" d="M487.134,280.859c0,127.696-103.584,231.136-231.136,231.136c-72.8,0-137.808-33.664-180-86.24
	c39.584,31.776,89.712,50.704,144.464,50.704c127.552,0,231.136-103.44,231.136-231.136c0-54.752-18.928-104.88-50.848-144.464
	C453.47,143.195,487.134,208.059,487.134,280.859z"/>
<path style="fill:#3E4347;" d="M338.078,433.275c-54.72-21.44-109.44-21.44-164.16,0c-10.24,4.16-20.8-5.6-17.28-16
	c14.08-41.28,53.28-71.04,99.36-71.04s85.28,29.76,99.36,71.04C358.878,427.675,348.318,437.435,338.078,433.275z"/>
<g>
	<path style="fill:#FFFFFF;" d="M344.078,394.651c-5.008-7.776-10.944-14.848-17.776-21.04c-0.512,10.784-1.904,23.92-5.6,34.656
		c-0.72,2.624-1.744,5.168-2.832,7.344c-1.008,1.888-0.176,4.272,1.712,5.28c0.112,0.192,0.272,0.24,0.272,0.24
		c1.616,0.768,3.376,0.416,4.48-0.608c2.928-2.848,8.448-8.464,14.032-16.736C340.238,401.067,342.174,397.979,344.078,394.651z"/>
	<path style="fill:#FFFFFF;" d="M167.918,394.635c1.888,3.328,3.84,6.432,5.744,9.152c5.584,8.256,11.088,13.888,14.032,16.736
		c1.104,1.024,2.864,1.376,4.48,0.608c0,0,0.16-0.048,0.272-0.24c1.872-1.008,2.72-3.392,1.712-5.28
		c-1.088-2.192-2.128-4.72-2.832-7.344c-3.696-10.736-5.088-23.872-5.6-34.656C178.862,379.787,172.926,386.859,167.918,394.635z"/>
	<path style="fill:#FFFFFF;" d="M226.094,389.083c0.416-1.84-0.848-3.68-2.688-4.096c-0.144-0.144-0.288-0.144-0.288-0.144
		c-1.552-0.288-2.976,0.416-3.68,1.552c-1.84,3.104-5.232,9.184-8.048,17.52c-1.936,5.408-3.664,12-4.72,19.328
		c6.832-1.616,13.68-2.88,20.512-3.824c-1.36-7.616-2.288-15.936-1.808-23.408C225.39,393.595,225.662,391.195,226.094,389.083z"/>
	<path style="fill:#FFFFFF;" d="M305.342,423.243c-2.656-18.384-9.632-31.68-12.752-36.848c-0.848-1.136-2.256-1.84-3.68-1.552
		c-0.144,0-0.144,0-0.416,0.144c-1.84,0.432-2.976,2.256-2.544,4.096c1.776,8.896,0.656,20.224-1.184,30.336
		C291.63,420.347,298.494,421.627,305.342,423.243z"/>
	<path style="fill:#FFFFFF;" d="M395.998,229.339c1.008,27.872-15.84,54.336-43.456,64.48c-27.616,10-57.504,0.64-74.736-21.28
		c-3.04-3.808-1.392-9.504,3.04-11.152l105.648-38.512C391.054,221.227,395.87,224.523,395.998,229.339z"/>
</g>
<path style="fill:#D03F3F;" d="M276.11,238.203c-1.76-4.848,0.736-10.192,5.584-11.968l102.688-37.44
	c4.784-1.744,10.192,0.736,11.968,5.584c1.76,4.848-0.736,10.192-5.584,11.968l-102.688,37.44
	C283.23,245.547,277.87,243.051,276.11,238.203z"/>
<path style="fill:#3E4347;" d="M301.998,261.067c0,16.912,13.216,30.688,29.584,30.688c16.224,0,29.44-13.776,29.44-30.688
	c0-10.096-4.688-18.96-11.84-24.576l-46.128,16.816C302.43,255.787,301.998,258.363,301.998,261.067z"/>
<g>
	
		<ellipse transform="matrix(-0.4449 -0.8956 0.8956 -0.4449 275.2842 675.2689)" style="fill:#5A5F63;" cx="346.917" cy="252.32" rx="6.096" ry="4.544"/>
	<ellipse style="fill:#5A5F63;" cx="331.502" cy="265.227" rx="4.512" ry="12.928"/>
</g>
<path style="fill:#FFFFFF;" d="M115.998,229.339c-1.008,27.872,15.84,54.336,43.456,64.48c27.616,10,57.504,0.64,74.736-21.28
	c3.04-3.808,1.392-9.504-3.04-11.152l-105.648-38.512C120.942,221.227,116.126,224.523,115.998,229.339z"/>
<path style="fill:#D03F3F;" d="M223.918,243.787l-102.688-37.44c-4.848-1.776-7.344-7.12-5.584-11.968
	c1.776-4.848,7.184-7.312,11.968-5.584l102.688,37.44c4.848,1.776,7.344,7.12,5.584,11.968
	C234.126,243.051,228.782,245.547,223.918,243.787z"/>
<path style="fill:#3E4347;" d="M209.998,261.067c0,16.912-13.216,30.688-29.584,30.688c-16.224,0-29.44-13.776-29.44-30.688
	c0-10.096,4.704-18.96,11.84-24.576l46.128,16.816C209.566,255.787,209.998,258.363,209.998,261.067z"/>
<g>
	
		<ellipse transform="matrix(-0.8956 -0.4449 0.4449 -0.8956 200.719 551.7161)" style="fill:#5A5F63;" cx="165.103" cy="252.304" rx="4.544" ry="6.096"/>
	<ellipse style="fill:#5A5F63;" cx="180.494" cy="265.227" rx="4.512" ry="12.928"/>
</g>
<g>
</g>
<g>
</g>
<g>
</g>
<g>
</g>
<g>
</g>
<g>
</g>
<g>
</g>
<g>
</g>
<g>
</g>
<g>
</g>
<g>
</g>
<g>
</g>
<g>
</g>
<g>
</g>
<g>
</g>
</svg>
