<svg xmlns="http://www.w3.org/2000/svg" xmlns:xlink="http://www.w3.org/1999/xlink" width="512" height="512" viewBox="0 0 512 512">
  <defs>
    <clipPath id="clip-fire">
      <rect width="512" height="512"/>
    </clipPath>
  </defs>
  <g id="fire" clip-path="url(#clip-fire)">
    <circle id="Background" cx="256" cy="256" r="256"/>
    <g id="fire-2" data-name="fire" transform="translate(86.613 110.547)">
      <g id="Flame" transform="translate(55.838 0.001)">
        <path id="Path_56" data-name="Path 56" d="M210.453,279.138c10.562-21.124,23.148-57.093,5.566-72.6-16.207,2.434-29.313,2.449-39.976.055-26.851-6.029-35.35-27.3-27.958-54.546-36.126,33.014-37.651,81.692-24.259,128.567a8.547,8.547,0,0,1-12.948,9.452c-2.248-1.5-55.041-37.328-55.041-92.5,0-90.389,102.476-94.278,102.476-189.011a8.547,8.547,0,0,1,14.028-6.543C213.291,36.359,287.8,118.932,283.623,194.877c-2.073,37.65-22.528,69.675-60.8,95.187C215.59,294.887,206.551,286.942,210.453,279.138Z" transform="translate(-55.838 -0.001)" fill="gold"/>
      </g>
    </g>
  </g>
</svg>
