<svg xmlns="http://www.w3.org/2000/svg" xmlns:xlink="http://www.w3.org/1999/xlink" width="512" height="512" viewBox="0 0 512 512">
  <defs>
    <clipPath id="clip-hi">
      <rect width="512" height="512"/>
    </clipPath>
  </defs>
  <g id="hi" clip-path="url(#clip-hi)">
    <circle id="Background" cx="256" cy="256" r="256"/>
    <g id="hi-2" data-name="hi" transform="translate(149.862 103.654)">
      <g id="Group_4" data-name="Group 4" transform="translate(90.98 -33.345) rotate(25)">
        <path id="Path_26" data-name="Path 26" d="M143.581,43.623a18.618,18.618,0,0,0-31.788,13.169V35.676a18.627,18.627,0,0,0-37.253,0V18.619A18.612,18.612,0,0,0,55.507,0,18.87,18.87,0,0,0,37.294,19V40.66a18.623,18.623,0,0,0-37.247,0v71.464L0,132.831l17.118,57.89,4.9,91.861-2.35,41.346H124.743a5.671,5.671,0,0,0,5.671-5.671V269.532l7.2-10.487a65.157,65.157,0,0,0,11.428-36.861V56.792a18.55,18.55,0,0,0-5.46-13.168Z" transform="translate(35.622 0)" fill="#ffe5c2"/>
        <path id="Path_27" data-name="Path 27" d="M76.969,128.732A11.263,11.263,0,0,0,88.232,117.47,59.116,59.116,0,0,0,50.437,62.337l-9.359-3.62A2.911,2.911,0,0,1,39.217,56V19.439A19.625,19.625,0,0,0,22.145,0V18.111A19.6,19.6,0,0,0,2.362,10.1,19.528,19.528,0,0,0,0,19.439v86.41a47.491,47.491,0,0,0,5.884,22.883Z" transform="translate(13.604 97.351)" fill="#fed2a4"/>
        <path id="Path_28" data-name="Path 28" d="M28.758,159.458v54.469A6.245,6.245,0,0,0,35,220.171H88.232V117.634A59.116,59.116,0,0,0,50.437,62.5l-11.221-4.34V19.6A19.608,19.608,0,1,0,0,19.6v86.409a47.5,47.5,0,0,0,9.895,29.018Z" transform="translate(0 103.757)" fill="#ffe5c2"/>
        <g id="Group_3" data-name="Group 3" transform="translate(0.001 0)">
          <path id="Path_29" data-name="Path 29" d="M28.758,159.459v54.469A6.245,6.245,0,0,0,35,220.172H160.364a5.671,5.671,0,0,0,5.671-5.671V210.12c-3.484-.053-83.343-.066-89.477-.066a22.382,22.382,0,0,1-22.384-22.386V161.131a27.608,27.608,0,0,0-5.757-16.874L35.31,127.286a47.5,47.5,0,0,1-9.895-29.018V11.857a19.522,19.522,0,0,1,2.691-9.914A19.6,19.6,0,0,0,0,19.6v86.411a47.5,47.5,0,0,0,9.895,29.018Z" transform="translate(0 103.755)" fill="#fed2a4"/>
          <path id="Path_30" data-name="Path 30" d="M.047,18.55,0,90.981H17.118V0A18.624,18.624,0,0,0,.047,18.55Z" transform="translate(35.621 22.111)" fill="#fed2a4"/>
          <path id="Path_31" data-name="Path 31" d="M18.636,0A18.621,18.621,0,0,0,.008,18.619V40.661c0-.113-.007-.225-.008-.338v92.766H.778A19.541,19.541,0,0,0,20.32,113.547V.079C19.765.03,19.2,0,18.636,0Z" transform="translate(72.906)" fill="#fed2a4"/>
          <path id="Path_32" data-name="Path 32" d="M18.6,0A18.627,18.627,0,0,0,0,17.661v98.371H.972A19.541,19.541,0,0,0,20.514,96.49L20.517.1A18.951,18.951,0,0,0,18.6,0Z" transform="translate(110.185 17.057)" fill="#fed2a4"/>
          <path id="Path_33" data-name="Path 33" d="M18.485,0A18.618,18.618,0,0,0,0,16.424v78.5A19.542,19.542,0,0,0,19.542,75.381V.031C19.192.012,18.84,0,18.485,0Z" transform="translate(147.549 38.165)" fill="#fed2a4"/>
        </g>
      </g>
      <path id="Path_42" data-name="Path 42" d="M8.711,57.661l-.5-.746a48.524,48.524,0,0,1,.556-54.83,4.885,4.885,0,0,1,8,5.6,39,39,0,0,0-.443,43.79l.5.747a4.885,4.885,0,1,1-8.117,5.437ZM31.352,44.7a4.883,4.883,0,0,1-4.062-2.165l-.2-.3a22.3,22.3,0,0,1,.253-25.037,4.885,4.885,0,0,1,8,5.6,12.466,12.466,0,0,0-.142,14l.2.294a4.885,4.885,0,0,1-4.053,7.6Z" transform="translate(-1.669 7.506) rotate(25)" fill="#fee97d"/>
      <path id="Path_41" data-name="Path 41" d="M20.661,58.945a4.886,4.886,0,0,1-1.2-6.8A39,39,0,0,0,19.9,8.352l-.5-.745A4.885,4.885,0,0,1,27.52,2.166l.5.746a48.32,48.32,0,0,1,8.21,27.5,48.323,48.323,0,0,1-8.766,27.329,4.885,4.885,0,0,1-6.8,1.2ZM2.084,43.822a4.885,4.885,0,0,1-1.2-6.8,12.463,12.463,0,0,0,.142-13.995l-.2-.294a4.886,4.886,0,0,1,8.117-5.44l.2.295a22.3,22.3,0,0,1-.254,25.037,4.884,4.884,0,0,1-6.8,1.2Z" transform="translate(224.596 194.704) rotate(25)" fill="#fee97d"/>
    </g>
  </g>
</svg>
