<svg xmlns="http://www.w3.org/2000/svg" xmlns:xlink="http://www.w3.org/1999/xlink" width="512" height="512" viewBox="0 0 512 512">
  <defs>
    <clipPath id="clip-love">
      <rect width="512" height="512"/>
    </clipPath>
  </defs>
  <g id="love" clip-path="url(#clip-love)">
    <circle id="Background" cx="256" cy="256" r="256"/>
    <g id="heart" transform="translate(100.465 86.994)">
      <path id="Path_43" data-name="Path 43" d="M57.669,259.312H299.04v36.937H57.669Z" transform="translate(-22.577 -88.389)" fill="#f69583"/>
      <g id="Group_7" data-name="Group 7" transform="translate(62.006 219.802)">
        <g id="Group_5" data-name="Group 5">
          <path id="Path_44" data-name="Path 44" d="M172.507,424.112h-64.34a6.269,6.269,0,0,1-6.269-6.269V339.638h76.877v78.205A6.269,6.269,0,0,1,172.507,424.112Z" transform="translate(-101.898 -339.638)" fill="#ffcec0"/>
        </g>
        <g id="Group_6" data-name="Group 6" transform="translate(110.667)">
          <path id="Path_45" data-name="Path 45" d="M354.373,424.112h-64.34a6.269,6.269,0,0,1-6.269-6.269V339.638h76.878v78.205A6.269,6.269,0,0,1,354.373,424.112Z" transform="translate(-283.764 -339.638)" fill="#ffcec0"/>
        </g>
      </g>
      <g id="Group_24" data-name="Group 24" transform="translate(0 33.539)">
        <g id="Group_10" data-name="Group 10" transform="translate(0 86.644)">
          <g id="Group_8" data-name="Group 8">
            <path id="Path_46" data-name="Path 46" d="M47.482,235.006,29.64,185.985A15.279,15.279,0,1,0,.925,196.436l17.842,49.021Z" transform="translate(0 -175.927)" fill="#fdb0a0"/>
            <path id="Path_47" data-name="Path 47" d="M30.825,185.988l17.841,49.019-19.079,6.944L11.746,192.932a15.24,15.24,0,0,0-8.719-8.975,15.274,15.274,0,0,1,27.8,2.031Z" transform="translate(-1.185 -175.928)" fill="#f69583"/>
          </g>
          <g id="Group_9" data-name="Group 9" transform="translate(264.074 0)">
            <path id="Path_48" data-name="Path 48" d="M462.684,245.457l17.842-49.021a15.278,15.278,0,0,0-28.714-10.451L433.97,235.006Z" transform="translate(-433.97 -175.928)" fill="#fdb0a0"/>
            <path id="Path_49" data-name="Path 49" d="M489.763,196.441,471.922,245.46l-14.358-5.226,17.841-49.019a15.253,15.253,0,0,0-2.654-15.044,15.276,15.276,0,0,1,17.012,20.27Z" transform="translate(-443.207 -175.93)" fill="#f69583"/>
          </g>
        </g>
        <g id="Group_15" data-name="Group 15" transform="translate(15.672)">
          <g id="Group_12" data-name="Group 12">
            <g id="Group_11" data-name="Group 11">
              <path id="Path_50" data-name="Path 50" d="M281.987,173.643A82.115,82.115,0,0,0,169.969,53.686a6.276,6.276,0,0,1-8.22,0A82.115,82.115,0,0,0,49.732,173.643L161.873,285.787a5.638,5.638,0,0,0,7.973,0Z" transform="translate(-25.754 -33.539)" fill="#fb4a59"/>
            </g>
          </g>
          <g id="Group_14" data-name="Group 14" transform="translate(122.1 0.893)">
            <g id="Group_13" data-name="Group 13">
              <path id="Path_51" data-name="Path 51" d="M360.544,174.216,248.4,286.362a5.643,5.643,0,0,1-7.978,0l-14.018-14.024L333.526,165.222A82.178,82.178,0,0,0,314.5,35.006a82.115,82.115,0,0,1,46.048,139.21Z" transform="translate(-226.409 -35.006)" fill="#f82f40"/>
            </g>
          </g>
        </g>
        <g id="Group_19" data-name="Group 19" transform="translate(7.792 109.97)">
          <g id="Group_18" data-name="Group 18">
            <g id="Group_16" data-name="Group 16">
              <path id="Path_52" data-name="Path 52" d="M56.033,271.421a4.889,4.889,0,0,1-4.1-3.908l-7.845-40.437a15.812,15.812,0,0,0-20.835-11.891,16.054,16.054,0,0,0-10.145,18.245l8.7,44.709L25.8,298.655A56.489,56.489,0,0,0,92.046,343.31l12.456-2.425a4.889,4.889,0,0,0,3.865-5.733l-3.315-17.027a58.482,58.482,0,0,0-49.02-46.7Z" transform="translate(-12.805 -214.26)" fill="#ffdfd0"/>
            </g>
            <g id="Group_17" data-name="Group 17" transform="translate(2.834 0.001)">
              <path id="Path_53" data-name="Path 53" d="M106.323,340.884l-10.675,2.078-3.526-18.127a58.481,58.481,0,0,0-49.023-46.7,4.892,4.892,0,0,1-4.1-3.909l-7.849-40.439a15.813,15.813,0,0,0-13.691-12.708,15.508,15.508,0,0,1,7.611-5.89A15.809,15.809,0,0,1,45.91,227.075l7.849,40.439a4.892,4.892,0,0,0,4.1,3.909,58.467,58.467,0,0,1,49.017,46.7l3.316,17.024a4.891,4.891,0,0,1-3.866,5.737Z" transform="translate(-17.462 -214.262)" fill="#ffcec0"/>
            </g>
          </g>
        </g>
        <g id="Group_23" data-name="Group 23" transform="translate(208.11 109.97)">
          <g id="Group_22" data-name="Group 22">
            <g id="Group_20" data-name="Group 20">
              <path id="Path_54" data-name="Path 54" d="M394.427,271.421a4.889,4.889,0,0,0,4.1-3.908l7.845-40.437a15.812,15.812,0,0,1,20.835-11.891,16.054,16.054,0,0,1,10.145,18.245l-8.7,44.709-3.994,20.515a56.489,56.489,0,0,1-66.241,44.655l-12.456-2.425a4.889,4.889,0,0,1-3.865-5.733l3.315-17.027a58.482,58.482,0,0,1,49.02-46.7Z" transform="translate(-342.001 -214.26)" fill="#ffdfd0"/>
            </g>
            <g id="Group_21" data-name="Group 21" transform="translate(10.506 0.002)">
              <path id="Path_55" data-name="Path 55" d="M444.11,233.43l-8.7,44.711-4,20.516a56.486,56.486,0,0,1-66.24,44.652l-5.907-1.149a56.511,56.511,0,0,0,56.723-45.694l3.99-20.516,8.707-44.705a16.234,16.234,0,0,0-5.836-15.87,15.712,15.712,0,0,1,11.118-.184A16.049,16.049,0,0,1,444.11,233.43Z" transform="translate(-359.267 -214.263)" fill="#ffcec0"/>
            </g>
          </g>
        </g>
      </g>
    </g>
  </g>
</svg>
