<svg xmlns="http://www.w3.org/2000/svg" width="249.999" height="40.002" viewBox="0 0 249.999 40.002">
  <path id="stars-bg" d="M-123.09,177h0l-25.817,0a2.518,2.518,0,0,0,1.152-2.576l-1.868-11.366,7.9-8.046a2.556,2.556,0,0,0,.589-2.615,2.379,2.379,0,0,0-1.913-1.65l-10.923-1.663-4.883-10.343a2.377,2.377,0,0,0-2.151-1.391,2.336,2.336,0,0,0-2.14,1.391l-4.882,10.343-10.923,1.663a2.379,2.379,0,0,0-1.912,1.651,2.555,2.555,0,0,0,.589,2.614l7.9,8.046-1.869,11.366A2.522,2.522,0,0,0-173.094,177h-25.817a2.48,2.48,0,0,0,1.188-2.129,2.648,2.648,0,0,0-.036-.447l-1.869-11.366,7.9-8.046a2.517,2.517,0,0,0,.725-1.78,2.467,2.467,0,0,0-2.048-2.485l-10.924-1.663-4.882-10.343a2.377,2.377,0,0,0-2.151-1.391,2.337,2.337,0,0,0-2.141,1.391l-4.882,10.343-10.923,1.663A2.467,2.467,0,0,0-231,153.232a2.517,2.517,0,0,0,.725,1.78l7.9,8.046-1.869,11.366a2.641,2.641,0,0,0-.036.447A2.486,2.486,0,0,0-223.094,177h-25.817a2.518,2.518,0,0,0,1.152-2.576l-1.868-11.366,7.9-8.046a2.556,2.556,0,0,0,.589-2.615,2.379,2.379,0,0,0-1.913-1.65l-10.923-1.663-4.882-10.343a2.377,2.377,0,0,0-2.151-1.391,2.336,2.336,0,0,0-2.14,1.391l-4.883,10.343-10.923,1.663a2.379,2.379,0,0,0-1.912,1.651,2.555,2.555,0,0,0,.589,2.614l7.9,8.046-1.869,11.366A2.522,2.522,0,0,0-273.094,177h-25.817a2.518,2.518,0,0,0,1.152-2.576l-1.869-11.366,7.9-8.046a2.556,2.556,0,0,0,.589-2.615,2.379,2.379,0,0,0-1.913-1.65l-10.923-1.663-4.882-10.343A2.377,2.377,0,0,0-311,137.35a2.337,2.337,0,0,0-2.141,1.391l-4.882,10.343-10.923,1.663a2.379,2.379,0,0,0-1.913,1.65,2.556,2.556,0,0,0,.589,2.615l7.9,8.046-1.869,11.366A2.522,2.522,0,0,0-323.094,177H-336V137H-86v40h-12.91a2.518,2.518,0,0,0,1.152-2.576l-1.869-11.366,7.9-8.046a2.556,2.556,0,0,0,.589-2.615,2.378,2.378,0,0,0-1.912-1.65l-10.923-1.663-4.882-10.343a2.377,2.377,0,0,0-2.151-1.391,2.337,2.337,0,0,0-2.141,1.391l-4.882,10.343-10.923,1.663a2.379,2.379,0,0,0-1.913,1.65,2.556,2.556,0,0,0,.589,2.615l7.9,8.046-1.869,11.366A2.524,2.524,0,0,0-123.093,177Zm21.755,0h-19.333l9.669-5.31,9.665,5.308Zm-50,0h-19.334l9.669-5.31,9.666,5.308Zm-50,0h-19.333l9.669-5.31,9.665,5.308Zm-50,0h-19.334l9.669-5.31,9.666,5.308Zm-50,0h-19.333l9.668-5.31,9.665,5.308Z" transform="translate(336 -137)"/>
</svg>
